<mxfile host="app.diagrams.net" modified="2023-10-25T02:33:42.425Z" agent="Mozilla/5.0 (X11; Linux x86_64) AppleWebKit/537.36 (KHTML, like Gecko) Chrome/118.0.0.0 Safari/537.36" etag="W8Ankj4NcRqazjD5MoDi" version="22.0.7" type="google">
  <diagram name="Page-1" id="PniIBVe3-bG2ekUyj64_">
    <mxGraphModel grid="1" page="1" gridSize="10" guides="1" tooltips="1" connect="1" arrows="1" fold="1" pageScale="1" pageWidth="850" pageHeight="1100" math="0" shadow="0">
      <root>
        <mxCell id="0" />
        <mxCell id="1" parent="0" />
        <mxCell id="bSh6cYIVE6NmtNTzWrD0-10" value="Controlador" style="shape=folder;fontStyle=1;tabWidth=76;tabHeight=20;tabPosition=left;html=1;boundedLbl=1;labelInHeader=1;container=1;collapsible=0;whiteSpace=wrap;fillColor=#dae8fc;strokeColor=#6c8ebf;" vertex="1" parent="1">
          <mxGeometry x="950" y="-500" width="610" height="380" as="geometry" />
        </mxCell>
        <mxCell id="bSh6cYIVE6NmtNTzWrD0-11" value="" style="html=1;strokeColor=none;resizeWidth=1;resizeHeight=1;fillColor=none;part=1;connectable=0;allowArrows=0;deletable=0;whiteSpace=wrap;" vertex="1" parent="bSh6cYIVE6NmtNTzWrD0-10">
          <mxGeometry width="609.9999999999999" height="266" relative="1" as="geometry">
            <mxPoint y="30" as="offset" />
          </mxGeometry>
        </mxCell>
        <mxCell id="bSh6cYIVE6NmtNTzWrD0-12" value="CrearTorneo" style="swimlane;fontStyle=1;align=center;verticalAlign=top;childLayout=stackLayout;horizontal=1;startSize=26;horizontalStack=0;resizeParent=1;resizeParentMax=0;resizeLast=0;collapsible=1;marginBottom=0;whiteSpace=wrap;html=1;swimlaneFillColor=#F0F0F0;gradientColor=none;" vertex="1" parent="bSh6cYIVE6NmtNTzWrD0-10">
          <mxGeometry x="10.217755443886096" y="40" width="585.9167504187604" height="129.99689655172415" as="geometry" />
        </mxCell>
        <mxCell id="bSh6cYIVE6NmtNTzWrD0-13" value="" style="line;strokeWidth=1;fillColor=none;align=left;verticalAlign=middle;spacingTop=-1;spacingLeft=3;spacingRight=3;rotatable=0;labelPosition=right;points=[];portConstraint=eastwest;strokeColor=inherit;" vertex="1" parent="bSh6cYIVE6NmtNTzWrD0-12">
          <mxGeometry y="26" width="585.9167504187604" height="26.206896551724142" as="geometry" />
        </mxCell>
        <mxCell id="bSh6cYIVE6NmtNTzWrD0-14" value="+ crearTorneo(torneo: Torneo): Bool" style="text;strokeColor=none;fillColor=none;align=left;verticalAlign=top;spacingLeft=4;spacingRight=4;overflow=hidden;rotatable=0;points=[[0,0.5],[1,0.5]];portConstraint=eastwest;whiteSpace=wrap;html=1;" vertex="1" parent="bSh6cYIVE6NmtNTzWrD0-12">
          <mxGeometry y="52.20689655172414" width="585.9167504187604" height="77.79" as="geometry" />
        </mxCell>
        <mxCell id="bSh6cYIVE6NmtNTzWrD0-15" value="Modelo" style="shape=folder;fontStyle=1;tabWidth=60;tabHeight=20;tabPosition=left;html=1;boundedLbl=1;labelInHeader=1;container=1;collapsible=0;whiteSpace=wrap;fillColor=#d5e8d4;strokeColor=#82b366;" vertex="1" parent="1">
          <mxGeometry x="1080" y="-110" width="380" height="380" as="geometry" />
        </mxCell>
        <mxCell id="bSh6cYIVE6NmtNTzWrD0-16" value="" style="html=1;strokeColor=none;resizeWidth=1;resizeHeight=1;fillColor=none;part=1;connectable=0;allowArrows=0;deletable=0;whiteSpace=wrap;" vertex="1" parent="bSh6cYIVE6NmtNTzWrD0-15">
          <mxGeometry width="300" height="229.31034482758625" relative="1" as="geometry">
            <mxPoint y="30" as="offset" />
          </mxGeometry>
        </mxCell>
        <mxCell id="bSh6cYIVE6NmtNTzWrD0-17" value="TorneoBD" style="swimlane;fontStyle=1;align=center;verticalAlign=top;childLayout=stackLayout;horizontal=1;startSize=26;horizontalStack=0;resizeParent=1;resizeParentMax=0;resizeLast=0;collapsible=1;marginBottom=0;whiteSpace=wrap;html=1;swimlaneFillColor=#F0F0F0;gradientColor=none;" vertex="1" parent="bSh6cYIVE6NmtNTzWrD0-15">
          <mxGeometry x="17.27" y="40" width="354.09" height="119.99689655172415" as="geometry">
            <mxRectangle x="17.27" y="40" width="100" height="30" as="alternateBounds" />
          </mxGeometry>
        </mxCell>
        <mxCell id="bSh6cYIVE6NmtNTzWrD0-18" value="- torneo: Torneo" style="text;strokeColor=none;fillColor=none;align=left;verticalAlign=top;spacingLeft=4;spacingRight=4;overflow=hidden;rotatable=0;points=[[0,0.5],[1,0.5]];portConstraint=eastwest;whiteSpace=wrap;html=1;" vertex="1" parent="bSh6cYIVE6NmtNTzWrD0-17">
          <mxGeometry y="26" width="354.09" height="24" as="geometry" />
        </mxCell>
        <mxCell id="bSh6cYIVE6NmtNTzWrD0-19" value="" style="line;strokeWidth=1;fillColor=none;align=left;verticalAlign=middle;spacingTop=-1;spacingLeft=3;spacingRight=3;rotatable=0;labelPosition=right;points=[];portConstraint=eastwest;strokeColor=inherit;" vertex="1" parent="bSh6cYIVE6NmtNTzWrD0-17">
          <mxGeometry y="50" width="354.09" height="26.206896551724142" as="geometry" />
        </mxCell>
        <mxCell id="bSh6cYIVE6NmtNTzWrD0-20" value="+ obtenerTorneo(idTorneo:int):Torneo&lt;br&gt;+ crearTorneo(torneo:Torneo)" style="text;strokeColor=none;fillColor=none;align=left;verticalAlign=top;spacingLeft=4;spacingRight=4;overflow=hidden;rotatable=0;points=[[0,0.5],[1,0.5]];portConstraint=eastwest;whiteSpace=wrap;html=1;" vertex="1" parent="bSh6cYIVE6NmtNTzWrD0-17">
          <mxGeometry y="76.20689655172414" width="354.09" height="43.79" as="geometry" />
        </mxCell>
        <mxCell id="bSh6cYIVE6NmtNTzWrD0-21" value="ConexionBD" style="swimlane;fontStyle=1;align=center;verticalAlign=top;childLayout=stackLayout;horizontal=1;startSize=26;horizontalStack=0;resizeParent=1;resizeParentMax=0;resizeLast=0;collapsible=1;marginBottom=0;whiteSpace=wrap;html=1;swimlaneFillColor=#F0F0F0;gradientColor=none;" vertex="1" parent="bSh6cYIVE6NmtNTzWrD0-15">
          <mxGeometry x="124.31" y="230" width="140" height="97.2115063520871" as="geometry" />
        </mxCell>
        <mxCell id="bSh6cYIVE6NmtNTzWrD0-22" value="" style="line;strokeWidth=1;fillColor=none;align=left;verticalAlign=middle;spacingTop=-1;spacingLeft=3;spacingRight=3;rotatable=0;labelPosition=right;points=[];portConstraint=eastwest;strokeColor=inherit;" vertex="1" parent="bSh6cYIVE6NmtNTzWrD0-21">
          <mxGeometry y="26" width="140" height="31.724137931034484" as="geometry" />
        </mxCell>
        <mxCell id="bSh6cYIVE6NmtNTzWrD0-23" value="+ conectarBD()&lt;br&gt;+ desconectarBD()" style="text;strokeColor=none;fillColor=none;align=left;verticalAlign=top;spacingLeft=4;spacingRight=4;overflow=hidden;rotatable=0;points=[[0,0.5],[1,0.5]];portConstraint=eastwest;whiteSpace=wrap;html=1;" vertex="1" parent="bSh6cYIVE6NmtNTzWrD0-21">
          <mxGeometry y="57.724137931034484" width="140" height="39.48736842105262" as="geometry" />
        </mxCell>
        <mxCell id="bSh6cYIVE6NmtNTzWrD0-24" value="Vista" style="shape=folder;fontStyle=1;tabWidth=50;tabHeight=20;tabPosition=left;html=1;boundedLbl=1;labelInHeader=1;container=1;collapsible=0;whiteSpace=wrap;fillColor=#f8cecc;strokeColor=#b85450;" vertex="1" parent="1">
          <mxGeometry x="935.5" y="-1000" width="689" height="480" as="geometry" />
        </mxCell>
        <mxCell id="bSh6cYIVE6NmtNTzWrD0-25" value="" style="html=1;strokeColor=none;resizeWidth=1;resizeHeight=1;fillColor=none;part=1;connectable=0;allowArrows=0;deletable=0;whiteSpace=wrap;" vertex="1" parent="bSh6cYIVE6NmtNTzWrD0-24">
          <mxGeometry width="688.9999999999999" height="317.3365701404543" relative="1" as="geometry">
            <mxPoint y="30" as="offset" />
          </mxGeometry>
        </mxCell>
        <mxCell id="bSh6cYIVE6NmtNTzWrD0-26" value="PantallaInicioAdministradorIH" style="swimlane;fontStyle=1;align=center;verticalAlign=top;childLayout=stackLayout;horizontal=1;startSize=26;horizontalStack=0;resizeParent=1;resizeParentMax=0;resizeLast=0;collapsible=1;marginBottom=0;whiteSpace=wrap;html=1;swimlaneFillColor=#F0F0F0;gradientColor=none;" vertex="1" parent="bSh6cYIVE6NmtNTzWrD0-24">
          <mxGeometry x="31.32574137931033" y="47.71978498352695" width="285.1050681818182" height="102.34795357653235" as="geometry" />
        </mxCell>
        <mxCell id="bSh6cYIVE6NmtNTzWrD0-27" value="" style="line;strokeWidth=1;fillColor=none;align=left;verticalAlign=middle;spacingTop=-1;spacingLeft=3;spacingRight=3;rotatable=0;labelPosition=right;points=[];portConstraint=eastwest;strokeColor=inherit;" vertex="1" parent="bSh6cYIVE6NmtNTzWrD0-26">
          <mxGeometry y="26" width="285.1050681818182" height="31.264686713345252" as="geometry" />
        </mxCell>
        <mxCell id="bSh6cYIVE6NmtNTzWrD0-28" value="+ buscarParticipantes()&lt;br style=&quot;border-color: var(--border-color);&quot;&gt;+ buscarTorneos()" style="text;strokeColor=none;fillColor=none;align=left;verticalAlign=top;spacingLeft=4;spacingRight=4;overflow=hidden;rotatable=0;points=[[0,0.5],[1,0.5]];portConstraint=eastwest;whiteSpace=wrap;html=1;" vertex="1" parent="bSh6cYIVE6NmtNTzWrD0-26">
          <mxGeometry y="57.264686713345256" width="285.1050681818182" height="45.08326686318709" as="geometry" />
        </mxCell>
        <mxCell id="bSh6cYIVE6NmtNTzWrD0-29" value="CRUDTorneosIH" style="swimlane;fontStyle=1;align=center;verticalAlign=top;childLayout=stackLayout;horizontal=1;startSize=26;horizontalStack=0;resizeParent=1;resizeParentMax=0;resizeLast=0;collapsible=1;marginBottom=0;whiteSpace=wrap;html=1;swimlaneFillColor=#F0F0F0;gradientColor=none;" vertex="1" parent="bSh6cYIVE6NmtNTzWrD0-24">
          <mxGeometry x="374.2598322884011" y="47.71978498352695" width="285.1050681818182" height="96.18017136741148" as="geometry" />
        </mxCell>
        <mxCell id="bSh6cYIVE6NmtNTzWrD0-30" value="" style="line;strokeWidth=1;fillColor=none;align=left;verticalAlign=middle;spacingTop=-1;spacingLeft=3;spacingRight=3;rotatable=0;labelPosition=right;points=[];portConstraint=eastwest;strokeColor=inherit;" vertex="1" parent="bSh6cYIVE6NmtNTzWrD0-29">
          <mxGeometry y="26" width="285.1050681818182" height="31.264686713345252" as="geometry" />
        </mxCell>
        <mxCell id="bSh6cYIVE6NmtNTzWrD0-31" value="+ crearTorneo()" style="text;strokeColor=none;fillColor=none;align=left;verticalAlign=top;spacingLeft=4;spacingRight=4;overflow=hidden;rotatable=0;points=[[0,0.5],[1,0.5]];portConstraint=eastwest;whiteSpace=wrap;html=1;" vertex="1" parent="bSh6cYIVE6NmtNTzWrD0-29">
          <mxGeometry y="57.264686713345256" width="285.1050681818182" height="38.915484654066226" as="geometry" />
        </mxCell>
        <mxCell id="bSh6cYIVE6NmtNTzWrD0-32" value="&lt;font style=&quot;font-size: 40px;&quot;&gt;Diagrama de Clases de&lt;b&gt;&lt;br&gt;&lt;i&gt;Crear un torneo&lt;/i&gt;&lt;/b&gt;&lt;/font&gt;" style="text;html=1;strokeColor=none;fillColor=none;align=center;verticalAlign=middle;whiteSpace=wrap;rounded=0;" vertex="1" parent="1">
          <mxGeometry x="1030" y="-1120" width="500" height="160" as="geometry" />
        </mxCell>
        <mxCell id="bSh6cYIVE6NmtNTzWrD0-33" value="FormularioCreacionTorneoIH" style="swimlane;fontStyle=1;align=center;verticalAlign=top;childLayout=stackLayout;horizontal=1;startSize=26;horizontalStack=0;resizeParent=1;resizeParentMax=0;resizeLast=0;collapsible=1;marginBottom=0;whiteSpace=wrap;html=1;swimlaneFillColor=#F0F0F0;gradientColor=none;" vertex="1" parent="1">
          <mxGeometry x="966.8181818181818" y="-829.9942159383033" width="626.36" height="289.9964409183583" as="geometry" />
        </mxCell>
        <mxCell id="bSh6cYIVE6NmtNTzWrD0-34" value="- foto: Blob&lt;br&gt;- nombreTorneo: String&lt;br&gt;- nombreVideojuego:String&lt;br&gt;- consola:String&lt;br&gt;- reglas:String&lt;br&gt;- numeroParticipantes:int&lt;br&gt;- fechaInicio: date&lt;br&gt;- fechaFin: date" style="text;strokeColor=none;fillColor=none;align=left;verticalAlign=top;spacingLeft=4;spacingRight=4;overflow=hidden;rotatable=0;points=[[0,0.5],[1,0.5]];portConstraint=eastwest;whiteSpace=wrap;html=1;" vertex="1" parent="bSh6cYIVE6NmtNTzWrD0-33">
          <mxGeometry y="26" width="626.36" height="159.17737789203082" as="geometry" />
        </mxCell>
        <mxCell id="bSh6cYIVE6NmtNTzWrD0-35" value="" style="line;strokeWidth=1;fillColor=none;align=left;verticalAlign=middle;spacingTop=-1;spacingLeft=3;spacingRight=3;rotatable=0;labelPosition=right;points=[];portConstraint=eastwest;strokeColor=inherit;" vertex="1" parent="bSh6cYIVE6NmtNTzWrD0-33">
          <mxGeometry y="185.17737789203082" width="626.36" height="28.969063026327454" as="geometry" />
        </mxCell>
        <mxCell id="bSh6cYIVE6NmtNTzWrD0-36" value="+ crearTorneo(formularioToreno: Torneo): Bool&lt;br&gt;+ validaCampos(): Bool&lt;br style=&quot;border-color: var(--border-color);&quot;&gt;+ mensajeErrorCampos(mensaje:String)" style="text;strokeColor=none;fillColor=none;align=left;verticalAlign=top;spacingLeft=4;spacingRight=4;overflow=hidden;rotatable=0;points=[[0,0.5],[1,0.5]];portConstraint=eastwest;whiteSpace=wrap;html=1;" vertex="1" parent="bSh6cYIVE6NmtNTzWrD0-33">
          <mxGeometry y="214.14644091835828" width="626.36" height="75.85" as="geometry" />
        </mxCell>
      </root>
    </mxGraphModel>
  </diagram>
</mxfile>
